# xmcd CD database file generated by Grip 2.96
# 
# Track frame offsets:
#       150
#       14025
#       27952
#       41167
#       55647
#       69835
#       81765
#       92870
#       111092
#       120247
#       134712
#       147402
#       158442
#       172717
#       181947
#       193005
# 
# Disc length: 2733 seconds
# 
# Revision: 0
# Processed by: cddbd v1.4PL0 Copyright (c) Steve Scherf et al.
# Submitted via: Grip 2.96
# 
DISCID=cf0aab10
DTITLE=The Rimshots - Rimshots Meets Rusti Steel And The Tin Tax
DYEAR=1900
DGENRE=
TTITLE0=If Only Hank Had Lived A Little Longer
TTITLE1=Rockin' Chair Money
TTITLE2=Honky Tonk Blues
TTITLE3=I'll Be A Bachelor Till I Die
TTITLE4=I'm So Lonesome I Could Cry
TTITLE5=I'm Going Home
TTITLE6=Fool About You
TTITLE7=Lovesick Blues
TTITLE8=I Know Hank Wrote Them Songs For Me
TTITLE9=No- One Will Ever Know
TTITLE10=Fly Trouble
TTITLE11=Rootie Tootie
TTITLE12=Devil's Train
TTITLE13=Roly Poly
TTITLE14=I'm Satisfied With You
TTITLE15=Mind Your Own Business
EXTD=
EXTT0=
EXTT1=
EXTT2=
EXTT3=
EXTT4=
EXTT5=
EXTT6=
EXTT7=
EXTT8=
EXTT9=
EXTT10=
EXTT11=
EXTT12=
EXTT13=
EXTT14=
EXTT15=
PLAYORDER=
